<?xml version="1.0" standalone="no"?>
<!DOCTYPE svg PUBLIC "-//W3C//DTD SVG 20010904//EN"
 "http://www.w3.org/TR/2001/REC-SVG-20010904/DTD/svg10.dtd">
<svg version="1.0" xmlns="http://www.w3.org/2000/svg"
 width="330.000000pt" height="330.000000pt" viewBox="0 0 330.000000 330.000000"
 preserveAspectRatio="xMidYMid meet">
<metadata>
Created by potrace 1.14, written by Peter Selinger 2001-2017
</metadata>
<g transform="translate(0.000000,330.000000) scale(0.100000,-0.100000)"
fill="#000000" stroke="none">
<path d="M1505 2508 c-27 -5 -57 -16 -66 -24 -26 -23 -46 -101 -58 -219 -8
-91 5 -130 94 -265 38 -58 74 -120 81 -139 15 -44 13 -127 -3 -124 -110 22
-419 20 -442 -3 -13 -13 59 -124 119 -184 104 -104 244 -161 405 -164 44 -1
105 4 135 11 83 19 189 76 242 130 58 58 151 190 140 197 -47 29 -341 51 -449
33 l-42 -6 4 43 c8 70 48 164 85 196 10 9 65 84 76 105 12 21 29 98 27 125 -1
46 -14 123 -30 184 -25 96 -41 106 -168 110 -55 2 -122 -1 -150 -6z m258 -36
c13 -11 35 -71 43 -122 3 -14 7 -32 10 -42 4 -14 -1 -15 -33 -11 -33 4 -46 -1
-99 -41 -34 -25 -79 -52 -100 -60 -46 -16 -156 -16 -161 0 -6 19 58 38 126 37
84 -2 118 4 103 19 -6 6 -47 13 -91 14 -61 2 -87 -1 -115 -15 l-36 -19 0 42
c0 46 32 172 48 188 19 19 76 26 184 24 63 -2 113 -7 121 -14z m50 -223 c29
-41 3 -127 -66 -217 -54 -72 -83 -101 -101 -103 -42 -4 -87 10 -113 37 -21 20
-115 175 -110 180 3 3 38 6 78 8 80 3 110 15 198 77 61 44 93 49 114 18z
m-164 -376 c-4 -12 -10 -45 -12 -75 -3 -42 -8 -54 -23 -56 -17 -2 -19 5 -21
58 -1 33 -7 68 -12 78 -8 15 -4 17 34 17 39 0 42 -2 34 -22z m51 -137 c0 -8
-72 -46 -87 -46 -23 0 -8 12 40 32 49 20 47 19 47 14z m110 -10 c0 -10 -94
-56 -113 -56 -33 0 -6 20 55 41 61 21 58 20 58 15z m55 -47 c-31 -22 -64 -38
-72 -35 -22 9 -5 26 51 52 77 35 86 29 21 -17z m91 -19 c-36 -34 -59 -48 -70
-44 -9 3 -16 8 -16 11 0 16 102 83 127 83 6 0 -12 -23 -41 -50z m87 -21 c-55
-53 -65 -59 -83 -49 l-21 11 23 18 c25 20 130 81 138 81 3 0 -23 -28 -57 -61z
m-463 25 c86 -14 255 -65 349 -106 43 -18 44 -19 23 -34 -19 -13 -24 -13 -44
0 -87 57 -339 128 -508 142 -36 3 -67 8 -70 11 -6 7 199 -4 250 -13z m-152
-30 c38 -5 148 -26 197 -38 76 -19 225 -82 249 -106 5 -5 -1 -14 -16 -21 -23
-10 -34 -7 -89 24 -53 29 -173 81 -214 91 -5 2 -17 6 -25 9 -8 3 -46 13 -85
22 -38 9 -77 21 -85 27 -12 8 -12 9 3 4 9 -3 39 -8 65 -12z m12 -59 c115 -31
132 -37 242 -88 81 -37 102 -57 59 -57 -10 0 -45 13 -78 30 -87 42 -125 58
-238 101 -118 45 -114 48 15 14z m152 -139 c22 -16 22 -17 -22 -10 -29 4 -69
23 -112 52 -38 25 -68 47 -68 48 0 6 180 -75 202 -90z"/>
<path d="M2038 2261 c-59 -59 -88 -112 -88 -165 l-1 -31 -13 25 c-8 13 -12 33
-10 45 9 38 4 108 -8 120 -7 7 -26 -39 -33 -80 -5 -30 11 -85 25 -85 4 0 15
-12 25 -26 16 -25 16 -25 -4 -15 -24 13 -51 4 -51 -16 0 -12 9 -14 43 -9 33 5
47 3 57 -9 11 -13 8 -15 -17 -15 -29 0 -83 -33 -83 -50 0 -9 15 -8 94 11 44
11 51 10 63 -7 19 -26 16 -36 -8 -24 -24 14 -77 4 -62 -11 5 -5 26 -10 46 -11
43 -1 53 -19 31 -54 -25 -37 -76 -28 -117 20 -60 71 -68 76 -113 76 -63 0
-109 -42 -109 -100 0 -32 6 -46 24 -59 34 -26 75 -14 79 22 3 23 0 27 -22 27
-16 0 -27 -7 -31 -21 -6 -17 -9 -19 -16 -8 -17 27 -10 68 15 84 48 32 81 23
145 -38 52 -49 65 -57 99 -57 43 0 65 18 82 66 8 21 8 39 0 58 -8 23 -6 31 15
52 14 14 25 27 25 29 0 12 -22 3 -40 -15 -23 -23 -40 -19 -40 11 0 11 4 18 9
15 5 -3 12 1 15 10 10 26 7 44 -8 44 -16 0 -26 -21 -26 -53 l-1 -22 -19 23
c-19 23 -19 23 16 70 19 26 39 53 45 60 7 9 5 12 -10 12 -29 0 -71 -41 -77
-75 -7 -42 -12 -42 -19 -2 -9 47 5 68 61 97 25 14 52 34 60 45 16 25 27 82 17
88 -5 3 -34 -21 -65 -52z"/>
<path d="M1273 2226 c-17 -8 -23 -20 -23 -43 0 -17 -4 -35 -10 -38 -10 -6 -14
13 -11 47 2 12 -4 15 -19 11 -11 -3 -20 -9 -20 -13 0 -4 -9 -10 -19 -13 -16
-4 -18 -12 -14 -56 4 -44 2 -50 -11 -45 -9 3 -16 17 -16 30 0 26 -27 64 -46
64 -7 0 -14 8 -16 18 -3 13 -7 10 -20 -13 -8 -16 -13 -36 -11 -43 3 -7 0 -18
-5 -25 -28 -34 16 -157 49 -136 26 16 33 9 12 -13 -21 -25 -20 -58 3 -58 18 0
29 4 28 10 -1 3 7 13 18 23 18 17 18 16 12 -22 -4 -22 -3 -52 0 -66 9 -35 59
-64 96 -56 32 7 100 65 100 85 0 14 31 46 44 46 5 0 -2 -9 -15 -21 -23 -19
-23 -20 -2 -10 59 29 143 -11 127 -62 -9 -31 -13 -33 -27 -13 -16 21 -50 18
-55 -5 -5 -25 24 -48 50 -42 39 10 58 34 58 72 -1 59 -57 108 -110 97 -29 -5
-33 4 -16 33 12 18 -39 61 -73 61 -19 0 -21 2 -11 15 6 8 15 14 18 13 26 -3
32 4 26 30 -3 15 -6 33 -6 40 -1 8 -9 11 -20 9 -22 -6 -23 10 -3 33 13 14 14
22 4 44 -13 27 -30 31 -66 12z m-42 -299 c11 -3 19 -14 19 -25 0 -17 6 -20 44
-18 25 1 42 -2 40 -6 -3 -4 -11 -8 -18 -8 -8 0 -19 -7 -26 -15 -7 -8 -29 -15
-50 -15 -30 0 -39 5 -48 25 -15 33 -15 51 0 78 10 18 13 19 16 6 2 -10 12 -19
23 -22z"/>
<path d="M463 1269 c-40 -12 -59 -56 -37 -88 9 -12 21 -21 29 -21 8 0 26 -5
40 -12 34 -15 33 -44 -2 -51 -20 -4 -34 2 -55 24 l-29 29 3 -37 c3 -37 3 -37
55 -40 124 -9 171 85 62 124 -33 12 -49 23 -47 33 5 24 44 23 67 -1 l21 -23
-2 28 c-2 16 -7 30 -13 31 -35 10 -64 12 -92 4z"/>
<path d="M2263 1270 c-62 -14 -89 -60 -69 -119 17 -53 52 -72 135 -76 39 -2
74 1 77 6 3 5 1 9 -4 9 -10 0 -7 73 3 90 3 6 -2 11 -12 11 -10 1 -28 3 -40 4
-21 2 -23 -1 -18 -41 3 -35 0 -46 -14 -53 -24 -13 -57 16 -66 58 -16 72 50
118 101 70 23 -21 24 -21 24 -3 0 10 -4 24 -8 30 -10 15 -70 22 -109 14z"/>
<path d="M2511 1273 c-111 -21 -115 -178 -4 -199 96 -18 162 62 122 149 -17
37 -69 59 -118 50z m43 -39 c9 -8 17 -23 17 -32 1 -9 3 -26 4 -37 6 -53 -36
-85 -64 -51 -19 23 -25 85 -11 112 15 28 32 31 54 8z"/>
<path d="M2735 1272 c-37 -8 -65 -34 -76 -72 -26 -86 52 -151 146 -120 57 19
81 83 54 143 -18 40 -71 61 -124 49z m49 -38 c15 -15 19 -33 19 -79 -1 -39 -3
-44 -25 -51 -31 -9 -57 26 -56 77 0 37 18 69 38 69 5 0 16 -7 24 -16z"/>
<path d="M3164 1264 c-36 -19 -34 -17 -39 -46 -6 -30 15 -51 68 -68 41 -13 49
-36 15 -49 -33 -12 -78 10 -78 38 0 5 -4 12 -9 15 -8 5 -4 -64 5 -73 2 -2 23
-6 47 -8 48 -5 117 18 118 39 0 7 2 21 4 31 5 24 -18 44 -66 58 -27 9 -39 17
-37 28 5 25 37 25 63 1 l24 -23 -5 29 c-6 34 -1 30 -45 37 -23 3 -47 0 -65 -9z"/>
<path d="M7 1263 c16 -6 18 -164 3 -179 -12 -12 121 -12 158 0 45 15 45 87 0
102 -19 6 -19 6 1 28 13 14 19 29 15 39 -5 14 -21 17 -98 16 -50 0 -85 -3 -79
-6z m119 -25 c7 -10 -20 -38 -38 -38 -4 0 -8 11 -8 25 0 18 5 25 19 25 11 0
23 -5 27 -12z m-1 -71 c27 -21 13 -67 -20 -67 -22 0 -25 5 -25 33 0 48 12 57
45 34z"/>
<path d="M215 1172 l0 -98 78 1 79 0 13 39 13 38 -26 -24 c-52 -49 -83 -43
-87 16 -3 45 8 53 42 31 l26 -17 -7 28 c-8 31 -26 56 -26 36 0 -7 -9 -12 -21
-12 -15 0 -19 4 -15 16 3 9 6 18 6 20 0 13 48 1 68 -18 21 -20 24 -20 19 -5
-4 10 -7 25 -7 33 0 11 -17 14 -77 14 l-78 0 0 -98z"/>
<path d="M596 1238 c-3 -17 -4 -33 -1 -36 3 -3 5 0 5 7 0 14 20 35 38 39 15 3
17 -149 1 -165 -7 -7 2 -10 33 -9 l43 2 0 84 c0 70 3 84 15 82 8 -2 21 -10 28
-19 11 -15 12 -15 12 -1 0 43 -10 48 -90 48 l-77 0 -7 -32z"/>
<path d="M885 1172 l0 -97 42 -1 c33 -1 40 2 32 12 -13 15 -8 165 6 163 6 -1
9 -12 7 -23 -4 -20 -3 -21 11 -2 8 11 22 21 31 22 15 2 17 -8 15 -74 -1 -42
-5 -82 -10 -88 -6 -7 7 -10 41 -10 31 1 46 4 40 10 -13 13 -13 166 0 166 6 0
20 -10 32 -22 l21 -21 -6 24 c-4 13 -7 27 -7 31 0 4 -57 8 -127 7 l-128 0 0
-97z"/>
<path d="M1225 1261 c7 -12 -53 -163 -68 -173 -13 -9 -13 -9 25 -12 23 -3 26
1 26 24 -1 32 8 50 25 50 22 -1 50 -29 52 -52 1 -20 8 -23 43 -24 42 -1 49 4
33 22 -10 10 -54 143 -54 162 0 8 -16 12 -44 12 -25 0 -42 -4 -38 -9z m35 -72
c0 -20 -15 -26 -24 -10 -8 13 4 42 15 35 5 -3 9 -14 9 -25z"/>
<path d="M1387 1258 c11 -17 13 -160 3 -173 -6 -7 19 -10 70 -10 73 0 79 2 84
21 3 12 9 30 13 41 4 12 -2 10 -20 -9 -15 -17 -37 -28 -52 -28 l-26 0 3 85 3
85 -43 0 c-32 0 -41 -3 -35 -12z"/>
<path d="M1569 1256 c8 -10 11 -44 9 -98 l-3 -84 35 0 36 0 -3 90 c-2 64 0 92
9 98 8 4 -10 8 -41 8 -45 0 -52 -2 -42 -14z"/>
<path d="M1730 1228 c-8 -24 -24 -67 -37 -97 -13 -29 -23 -54 -23 -56 0 -1 13
-2 30 -2 22 0 27 3 20 13 -13 15 7 64 27 64 22 0 55 -39 48 -59 -5 -15 1 -18
40 -17 36 1 44 4 39 16 -22 49 -61 170 -56 175 3 3 -13 5 -35 5 -38 0 -40 -2
-53 -42z m43 -38 c3 -12 0 -20 -7 -20 -19 0 -24 9 -19 30 6 23 18 18 26 -10z"/>
<path d="M1898 1258 c11 -14 11 -157 0 -174 -5 -7 1 -11 15 -11 23 0 24 2 22
80 l-2 81 30 -35 c66 -77 82 -102 69 -107 -22 -7 -13 -17 18 -18 20 -1 27 2
22 10 -11 17 -11 159 1 174 7 9 2 12 -22 12 -28 0 -31 -2 -21 -19 13 -25 13
-41 -1 -41 -6 0 -16 14 -22 30 -11 28 -15 30 -65 30 -42 0 -52 -3 -44 -12z"/>
<path d="M2885 1262 c12 -8 13 -160 2 -178 -4 -7 20 -10 75 -8 101 3 128 23
128 92 0 36 -5 49 -31 73 -29 27 -37 29 -108 29 -42 0 -71 -4 -66 -8z m119
-27 c22 -22 29 -52 22 -91 -5 -25 -13 -35 -32 -40 -14 -4 -28 -3 -32 0 -7 7
-11 126 -5 139 7 12 31 8 47 -8z"/>
<path d="M1578 898 c-50 -18 -28 -84 23 -71 26 7 24 -4 -2 -18 -16 -8 -23 -8
-29 1 -5 8 -9 7 -13 -4 -6 -16 7 -21 43 -17 21 3 50 39 50 63 0 15 -37 63 -44
57 -1 0 -13 -5 -28 -11z m35 -21 c3 -8 1 -20 -4 -28 -11 -19 -34 3 -26 25 8
20 23 21 30 3z"/>
<path d="M1814 899 c-52 -19 -54 -82 -4 -109 16 -9 25 -6 44 13 25 25 26 33
13 74 -9 26 -25 33 -53 22z m28 -37 c7 -24 -9 -65 -22 -57 -11 7 -14 68 -4 78
10 9 21 0 26 -21z"/>
<path d="M1465 843 c0 -47 2 -53 21 -53 21 0 23 11 15 97 -1 6 -9 11 -18 10
-15 -1 -18 -11 -18 -54z"/>
<path d="M1675 890 c-3 -5 3 -10 14 -10 12 0 21 -4 21 -10 0 -5 -4 -10 -10
-10 -18 0 -10 -18 10 -23 25 -6 26 -23 3 -31 -11 -5 -22 -1 -30 10 -12 16 -13
16 -13 -4 0 -18 6 -22 33 -22 18 0 38 5 45 12 17 17 15 45 -4 56 -11 6 -13 11
-5 16 6 4 11 11 11 17 0 12 -67 12 -75 -1z"/>
<path d="M900 879 c0 -4 7 -9 15 -13 9 -3 15 0 15 8 0 7 -7 13 -15 13 -8 0
-15 -4 -15 -8z"/>
<path d="M940 879 c0 -4 11 -9 25 -11 16 -3 25 -1 25 7 0 7 -11 12 -25 11 -14
0 -25 -4 -25 -7z"/>
<path d="M1001 874 c0 -11 3 -14 6 -6 3 7 2 16 -1 19 -3 4 -6 -2 -5 -13z"/>
<path d="M1020 879 c0 -4 20 -9 45 -11 28 -2 45 1 45 8 0 6 -19 10 -45 10 -25
-1 -45 -4 -45 -7z"/>
<path d="M1129 879 c-8 -5 -8 -9 0 -13 6 -4 11 -1 11 6 0 8 3 9 8 3 11 -15 32
-17 32 -2 0 13 -33 17 -51 6z"/>
<path d="M1190 879 c0 -4 29 -9 63 -11 38 -2 64 1 64 7 0 6 -28 10 -64 11 -34
0 -63 -3 -63 -7z"/>
<path d="M1968 878 c-6 -3 21 -8 60 -10 44 -2 72 1 72 7 0 7 3 7 8 0 11 -15
32 -17 32 -2 0 8 -23 12 -81 12 -44 0 -86 -3 -91 -7z"/>
<path d="M2150 879 c0 -4 23 -9 50 -11 30 -2 50 1 50 8 0 5 -22 10 -50 10 -27
0 -50 -3 -50 -7z"/>
<path d="M2260 879 c0 -4 7 -9 15 -13 9 -3 15 0 15 8 0 7 -7 13 -15 13 -8 0
-15 -4 -15 -8z"/>
<path d="M2303 875 c0 -5 11 -10 24 -10 13 0 23 3 23 7 0 3 8 4 19 1 10 -3 21
-1 24 4 3 5 -16 9 -42 8 -26 0 -48 -4 -48 -10z"/>
<path d="M1257 823 c-3 -5 -58 -9 -121 -8 -64 1 -116 -2 -116 -7 0 -5 11 -6
24 -4 14 2 27 -1 30 -7 2 -7 5 -7 5 -2 1 6 47 10 121 9 66 -1 120 2 120 6 0 4
-10 7 -22 6 -13 -1 -26 2 -29 7 -4 5 -9 5 -12 0z"/>
<path d="M2217 823 c-3 -5 -60 -9 -126 -8 -66 1 -118 -2 -115 -7 3 -4 16 -6
29 -4 13 3 26 -1 29 -7 2 -7 5 -7 5 -2 1 6 45 9 116 8 63 -1 115 2 115 7 0 4
-8 7 -17 6 -10 -2 -21 1 -24 6 -4 6 -9 7 -12 1z"/>
</g>
</svg>
